<?xml version="1.0" encoding="UTF-8"?>
<svg id="Layer_1" data-name="Layer 1" xmlns="http://www.w3.org/2000/svg" xmlns:xlink="http://www.w3.org/1999/xlink" viewBox="0 0 500 200">
  <defs>
    <style>
      .cls-1 {
        fill: url(#linear-gradient);
      }

      .cls-1, .cls-2, .cls-3, .cls-4, .cls-5, .cls-6, .cls-7, .cls-8, .cls-9, .cls-10, .cls-11, .cls-12, .cls-13 {
        stroke-width: 0px;
      }

      .cls-2 {
        fill: url(#linear-gradient-6);
      }

      .cls-3 {
        fill: url(#linear-gradient-5);
      }

      .cls-4 {
        fill: #fff;
      }

      .cls-5 {
        fill: #1c2a6e;
      }

      .cls-6 {
        fill: url(#linear-gradient-2);
      }

      .cls-7 {
        fill: url(#linear-gradient-7);
      }

      .cls-8 {
        fill: url(#linear-gradient-3);
      }

      .cls-9 {
        fill: #856bff;
      }

      .cls-10 {
        fill: url(#linear-gradient-9);
      }

      .cls-11 {
        fill: url(#linear-gradient-8);
      }

      .cls-12 {
        fill: url(#linear-gradient-10);
      }

      .cls-13 {
        fill: url(#linear-gradient-4);
      }
    </style>
    <linearGradient id="linear-gradient" x1="3.9" y1="172.66" x2="117.13" y2="37.16" gradientUnits="userSpaceOnUse">
      <stop offset="0" stop-color="#2cdbc6"/>
      <stop offset="1" stop-color="#856cfe"/>
    </linearGradient>
    <linearGradient id="linear-gradient-2" x1="-25.84" y1="147.8" x2="87.39" y2="12.31" xlink:href="#linear-gradient"/>
    <linearGradient id="linear-gradient-3" x1="-3.25" y1="166.69" x2="109.99" y2="31.19" xlink:href="#linear-gradient"/>
    <linearGradient id="linear-gradient-4" x1="-28.34" y1="145.72" x2="84.9" y2="10.22" xlink:href="#linear-gradient"/>
    <linearGradient id="linear-gradient-5" x1="-9.95" y1="161.08" x2="103.28" y2="25.59" xlink:href="#linear-gradient"/>
    <linearGradient id="linear-gradient-6" x1="-30.83" y1="143.64" x2="82.4" y2="8.14" xlink:href="#linear-gradient"/>
    <linearGradient id="linear-gradient-7" x1="11.6" y1="179.1" x2="124.84" y2="43.6" xlink:href="#linear-gradient"/>
    <linearGradient id="linear-gradient-8" x1="-23.35" y1="149.89" x2="89.88" y2="14.39" xlink:href="#linear-gradient"/>
    <linearGradient id="linear-gradient-9" x1="0" y1="130.21" x2="490.85" y2="130.21" gradientUnits="userSpaceOnUse">
      <stop offset=".15" stop-color="#ee1d23"/>
      <stop offset=".26" stop-color="#ee1d23"/>
      <stop offset=".36" stop-color="#f2961f"/>
      <stop offset=".46" stop-color="#efc518"/>
      <stop offset=".59" stop-color="#2cdbc6"/>
      <stop offset=".73" stop-color="#2cdbc6"/>
      <stop offset=".8" stop-color="#856bff"/>
    </linearGradient>
    <linearGradient id="linear-gradient-10" x1="267.35" y1="392.82" x2="380.59" y2="257.32" xlink:href="#linear-gradient"/>
  </defs>
  <rect class="cls-4" y="-.47" width="500" height="200.47"/>
  <g>
    <g>
      <path class="cls-5" d="M163.58,39.62v68.87h-19.97v-7.6c-5.99,5.48-12.93,8.22-20.84,8.22-9.25,0-17.1-3.44-23.54-10.33-6.45-6.88-9.67-15.2-9.67-24.96,0-8.58,3.01-16.43,9.04-23.54,6.74-7.95,15.13-11.93,25.18-11.93,3.89,0,7.45.75,10.67,2.26,3.22,1.51,6.15,3.75,8.79,6.72v-7.72h20.34ZM110.03,73.84c0,5.11,1.74,9.21,5.21,12.31,3.22,2.89,7.2,4.33,11.93,4.33,4.48,0,8.27-1.32,11.36-3.96,3.56-3.01,5.34-7.2,5.34-12.56s-1.59-9.44-4.77-12.49c-3.18-3.05-7.2-4.58-12.05-4.58-4.56,0-8.43,1.4-11.62,4.21-3.6,3.14-5.4,7.39-5.4,12.75Z"/>
      <path class="cls-5" d="M196.86,71.26v37.48h-19.78V17.21h19.27v30.89c2.39-3.22,5.02-5.61,7.91-7.16,3.22-1.72,7.07-2.57,11.55-2.57h1.88c5.98,0,10.97,2.01,14.94,6.03,4.48,4.52,6.72,10.78,6.72,18.77v45.58h-20.34v-37.48c0-4.65-.65-8.06-1.95-10.23-1.47-2.43-3.96-3.64-7.47-3.64h-1.25c-.42,0-.9.04-1.44.13-2.8.34-5.02,1.34-6.66,3.01-2.26,2.34-3.39,5.92-3.39,10.74Z"/>
      <path class="cls-5" d="M322.62,39.62v68.87h-19.97v-7.6c-5.99,5.48-12.93,8.22-20.84,8.22-9.25,0-17.1-3.44-23.55-10.33-6.45-6.88-9.67-15.2-9.67-24.96,0-8.58,3.01-16.43,9.04-23.54,6.74-7.95,15.13-11.93,25.18-11.93,3.89,0,7.45.75,10.67,2.26,3.22,1.51,6.15,3.75,8.79,6.72v-7.72h20.34ZM269.06,73.84c0,5.11,1.74,9.21,5.21,12.31,3.22,2.89,7.2,4.33,11.93,4.33,4.48,0,8.27-1.32,11.36-3.96,3.56-3.01,5.34-7.2,5.34-12.56s-1.59-9.44-4.77-12.49c-3.18-3.05-7.2-4.58-12.05-4.58-4.56,0-8.44,1.4-11.62,4.21-3.6,3.14-5.4,7.39-5.4,12.75Z"/>
      <path class="cls-5" d="M355.89,71.26v37.48h-19.78V39.62h19.02l-.25,9.29c4.86-7.03,11.55-10.55,20.09-10.55h1.76c5.98,0,10.97,2.01,14.94,6.03,4.48,4.52,6.72,10.78,6.72,18.77v45.58h-20.34v-37.48c0-4.73-.67-8.18-2.01-10.36-1.47-2.39-3.96-3.58-7.47-3.58-.79,0-1.67.06-2.64.19-2.8.34-5.02,1.34-6.66,3.01-2.26,2.34-3.39,5.92-3.39,10.74Z"/>
      <path class="cls-5" d="M481.65,39.62v68.87h-19.97v-7.6c-5.99,5.48-12.93,8.22-20.84,8.22-9.25,0-17.1-3.44-23.54-10.33-6.45-6.88-9.67-15.2-9.67-24.96,0-8.58,3.01-16.43,9.04-23.54,6.74-7.95,15.13-11.93,25.18-11.93,3.89,0,7.45.75,10.67,2.26,3.22,1.51,6.15,3.75,8.79,6.72v-7.72h20.34ZM428.1,73.84c0,5.11,1.74,9.21,5.21,12.31,3.22,2.89,7.2,4.33,11.93,4.33,4.48,0,8.27-1.32,11.36-3.96,3.56-3.01,5.34-7.2,5.34-12.56s-1.59-9.44-4.77-12.49c-3.18-3.05-7.2-4.58-12.05-4.58-4.56,0-8.43,1.4-11.62,4.21-3.6,3.14-5.4,7.39-5.4,12.75Z"/>
    </g>
    <g>
      <rect class="cls-1" x="52.56" y="46.32" width="5.88" height="129.18"/>
      <path class="cls-6" d="M55.49,35.5c3.25,6.12,6.37,11.99,9.73,18.3-3.09-1.36-5.73-2.61-8.43-3.66-.77-.3-1.87-.27-2.65.03-2.67,1.04-5.26,2.27-8.36,3.64,3.35-6.31,6.47-12.18,9.72-18.31Z"/>
    </g>
    <g>
      <rect class="cls-8" x="33.02" y="64.04" width="5.88" height="111.46"/>
      <path class="cls-13" d="M35.96,53.81c3.25,6.12,6.37,11.99,9.73,18.3-3.09-1.36-5.73-2.61-8.43-3.66-.77-.3-1.87-.27-2.65.03-2.67,1.04-5.26,2.27-8.36,3.64,3.35-6.31,6.47-12.18,9.72-18.31Z"/>
    </g>
    <g>
      <rect class="cls-3" x="13.49" y="83.54" width="5.88" height="91.96"/>
      <path class="cls-2" d="M16.42,72.12c3.25,6.12,6.37,11.99,9.73,18.3-3.09-1.36-5.73-2.61-8.43-3.66-.77-.3-1.87-.27-2.65.03-2.67,1.04-5.26,2.27-8.36,3.64,3.35-6.31,6.47-12.18,9.72-18.31Z"/>
    </g>
    <rect class="cls-7" x="72.09" y="30.9" width="5.88" height="144.6"/>
    <path class="cls-11" d="M75.03,17.2c3.25,6.12,6.37,11.99,9.73,18.3-3.09-1.36-5.73-2.61-8.43-3.66-.77-.3-1.87-.27-2.65.03-2.67,1.04-5.26,2.27-8.36,3.64,3.35-6.31,6.47-12.18,9.72-18.31Z"/>
    <rect class="cls-10" y="127.27" width="490.85" height="5.88"/>
    <path class="cls-12" d="M500,130.24c-6.12,3.25-11.99,6.37-18.3,9.73,1.36-3.09,2.61-5.73,3.66-8.43.3-.77.27-1.87-.03-2.65-1.04-2.67-2.27-5.26-3.64-8.36,6.31,3.35,12.18,6.47,18.31,9.72Z"/>
    <g>
      <path class="cls-9" d="M101.6,176.51c-2.09,0-3.96-.43-5.6-1.28s-2.92-2.04-3.85-3.56c-.93-1.52-1.39-3.24-1.39-5.16s.46-3.68,1.39-5.18c.93-1.5,2.21-2.68,3.85-3.54,1.64-.85,3.5-1.28,5.6-1.28s3.83.43,5.34,1.28c1.52.86,2.64,2.08,3.36,3.66l-4.37,2.35c-.51-.91-1.14-1.59-1.9-2.02s-1.58-.65-2.47-.65c-.96,0-1.83.22-2.6.65-.77.43-1.38,1.05-1.82,1.84-.45.79-.67,1.76-.67,2.89s.22,2.09.67,2.89c.45.79,1.05,1.41,1.82,1.84.77.43,1.64.65,2.6.65.89,0,1.72-.21,2.47-.63s1.39-1.1,1.9-2.04l4.37,2.38c-.72,1.57-1.84,2.77-3.36,3.63-1.52.85-3.3,1.28-5.34,1.28Z"/>
      <path class="cls-9" d="M113.55,176.22v-19.43h5.38v5.49l-.76-1.59c.58-1.37,1.5-2.41,2.78-3.12,1.28-.71,2.83-1.07,4.66-1.07v5.2c-.24-.02-.46-.04-.65-.05-.19-.01-.4-.02-.61-.02-1.54,0-2.79.44-3.74,1.32-.95.88-1.43,2.25-1.43,4.1v9.17h-5.63Z"/>
      <path class="cls-9" d="M138.43,176.51c-2.21,0-4.16-.43-5.83-1.3-1.67-.87-2.97-2.05-3.88-3.56-.91-1.5-1.37-3.22-1.37-5.15s.45-3.68,1.35-5.18c.9-1.5,2.14-2.68,3.7-3.54,1.56-.85,3.33-1.28,5.31-1.28s3.62.4,5.15,1.21c1.53.81,2.74,1.96,3.63,3.47.89,1.5,1.34,3.3,1.34,5.4,0,.22-.01.46-.04.74-.02.28-.05.54-.07.78h-15.78v-3.29h12.82l-2.17.98c0-1.01-.21-1.89-.61-2.64-.41-.75-.97-1.33-1.7-1.75s-1.56-.63-2.53-.63-1.81.21-2.55.63c-.73.42-1.31,1.01-1.72,1.77-.41.76-.61,1.66-.61,2.69v.87c0,1.06.23,1.99.7,2.8.47.81,1.13,1.42,1.99,1.84.85.42,1.86.63,3.01.63,1.03,0,1.94-.16,2.73-.47.78-.31,1.5-.78,2.15-1.41l3,3.25c-.89,1.01-2.01,1.79-3.36,2.33-1.35.54-2.9.81-4.66.81Z"/>
      <path class="cls-9" d="M157.02,176.51c-1.52,0-2.82-.26-3.9-.78-1.08-.52-1.91-1.22-2.49-2.11s-.87-1.89-.87-3,.28-2.17.85-3.03c.57-.87,1.46-1.55,2.69-2.04,1.23-.49,2.83-.74,4.8-.74h5.16v3.29h-4.55c-1.32,0-2.23.22-2.73.65-.49.43-.74.98-.74,1.62,0,.72.28,1.29.85,1.72.57.42,1.34.63,2.33.63s1.78-.22,2.53-.67c.75-.45,1.29-1.1,1.62-1.97l.87,2.6c-.41,1.25-1.16,2.2-2.24,2.85-1.08.65-2.48.98-4.19.98ZM162.94,176.22v-3.79l-.36-.83v-6.79c0-1.2-.37-2.14-1.1-2.82-.73-.67-1.86-1.01-3.38-1.01-1.04,0-2.05.16-3.05.49-1,.32-1.85.76-2.55,1.32l-2.02-3.94c1.06-.75,2.33-1.32,3.83-1.73,1.49-.41,3.01-.61,4.55-.61,2.96,0,5.26.7,6.9,2.09,1.64,1.4,2.46,3.57,2.46,6.54v11.08h-5.27Z"/>
      <path class="cls-9" d="M170.99,161.56v-4.33h13.47v4.33h-13.47ZM181.25,176.51c-2.29,0-4.07-.58-5.34-1.75-1.28-1.17-1.91-2.91-1.91-5.22v-17.04h5.63v16.97c0,.82.22,1.45.65,1.9.43.45,1.02.67,1.77.67.89,0,1.65-.24,2.27-.72l1.52,3.97c-.58.41-1.27.72-2.08.92-.81.2-1.64.31-2.51.31Z"/>
      <path class="cls-9" d="M191.83,154.09c-1.03,0-1.88-.3-2.53-.9s-.97-1.35-.97-2.24.32-1.64.97-2.24c.65-.6,1.49-.9,2.53-.9s1.88.28,2.53.85c.65.57.97,1.29.97,2.18,0,.94-.32,1.72-.96,2.33-.64.61-1.49.92-2.55.92ZM189.01,176.22v-19.43h5.63v19.43h-5.63Z"/>
      <path class="cls-9" d="M211.69,156.51c1.54,0,2.92.31,4.13.92,1.22.61,2.17,1.55,2.87,2.82.7,1.26,1.05,2.88,1.05,4.86v11.12h-5.63v-10.25c0-1.56-.34-2.72-1.03-3.47-.69-.75-1.66-1.12-2.91-1.12-.89,0-1.69.19-2.4.56-.71.37-1.26.95-1.66,1.72-.4.77-.6,1.76-.6,2.96v9.6h-5.63v-19.43h5.38v5.38l-1.01-1.62c.7-1.3,1.7-2.3,3-3,1.3-.7,2.78-1.05,4.44-1.05Z"/>
      <path class="cls-9" d="M233.24,175.28c-1.81,0-3.44-.39-4.89-1.17-1.46-.78-2.62-1.88-3.5-3.29-.88-1.41-1.32-3.05-1.32-4.93s.44-3.56,1.32-4.97c.88-1.41,2.05-2.5,3.5-3.27,1.46-.77,3.09-1.16,4.89-1.16,1.64,0,3.08.33,4.33.99,1.25.66,2.23,1.68,2.92,3.07.7,1.38,1.05,3.16,1.05,5.33s-.35,3.91-1.05,5.29c-.7,1.38-1.67,2.41-2.92,3.09-1.25.67-2.7,1.01-4.33,1.01ZM234.11,183.51c-1.83,0-3.59-.22-5.29-.67-1.7-.45-3.11-1.11-4.24-2l2.24-4.04c.82.67,1.86,1.21,3.12,1.61,1.26.4,2.51.6,3.74.6,2,0,3.45-.45,4.35-1.34.9-.89,1.35-2.21,1.35-3.97v-2.92l.36-4.87-.07-4.91v-4.19h5.34v16.18c0,3.61-.94,6.27-2.82,7.98-1.88,1.71-4.57,2.56-8.09,2.56ZM234.36,170.66c.99,0,1.87-.2,2.64-.6.77-.4,1.37-.96,1.81-1.68.43-.72.65-1.55.65-2.49s-.22-1.8-.65-2.51c-.43-.71-1.04-1.26-1.81-1.66-.77-.4-1.65-.6-2.64-.6s-1.87.2-2.64.6c-.77.4-1.38.95-1.82,1.66-.45.71-.67,1.55-.67,2.51s.22,1.77.67,2.49c.45.72,1.05,1.28,1.82,1.68.77.4,1.65.6,2.64.6Z"/>
      <path class="cls-9" d="M260.47,183.22v-26.43h5.38v3.97l-.11,5.78.36,5.74v10.94h-5.63ZM271.95,176.51c-1.64,0-3.07-.36-4.3-1.08-1.23-.72-2.19-1.82-2.87-3.3-.69-1.48-1.03-3.35-1.03-5.61s.32-4.16.97-5.63,1.59-2.56,2.82-3.29c1.23-.72,2.69-1.08,4.4-1.08,1.83,0,3.47.42,4.93,1.25,1.46.83,2.61,1.99,3.47,3.48.85,1.49,1.28,3.25,1.28,5.27s-.43,3.82-1.28,5.31c-.86,1.49-2.01,2.65-3.47,3.47-1.46.82-3.1,1.23-4.93,1.23ZM270.97,171.89c.94,0,1.77-.22,2.51-.65s1.32-1.05,1.77-1.86c.44-.81.67-1.76.67-2.87s-.22-2.09-.67-2.89c-.45-.79-1.04-1.41-1.77-1.84s-1.57-.65-2.51-.65-1.78.22-2.53.65-1.34,1.05-1.77,1.84c-.43.79-.65,1.76-.65,2.89s.22,2.06.65,2.87c.43.81,1.02,1.43,1.77,1.86s1.59.65,2.53.65Z"/>
      <path class="cls-9" d="M294.62,176.51c-2.07,0-3.91-.43-5.51-1.3s-2.86-2.05-3.79-3.56c-.93-1.5-1.39-3.22-1.39-5.15s.46-3.68,1.39-5.18c.93-1.5,2.19-2.68,3.79-3.54,1.6-.85,3.44-1.28,5.51-1.28s3.88.43,5.49,1.28c1.61.86,2.88,2.03,3.79,3.52.91,1.49,1.37,3.23,1.37,5.2s-.46,3.64-1.37,5.15c-.91,1.5-2.18,2.69-3.79,3.56-1.61.87-3.44,1.3-5.49,1.3ZM294.62,171.89c.94,0,1.78-.22,2.53-.65.75-.43,1.34-1.05,1.77-1.86s.65-1.76.65-2.87-.22-2.09-.65-2.89c-.43-.79-1.02-1.41-1.77-1.84-.75-.43-1.59-.65-2.53-.65s-1.78.22-2.53.65c-.75.43-1.34,1.05-1.79,1.84-.45.79-.67,1.76-.67,2.89s.22,2.06.67,2.87c.45.81,1.04,1.43,1.79,1.86.75.43,1.59.65,2.53.65Z"/>
      <path class="cls-9" d="M315.56,176.51c-1.66,0-3.26-.2-4.78-.6-1.53-.4-2.74-.9-3.63-1.5l1.88-4.04c.89.55,1.94,1.01,3.16,1.35,1.22.35,2.41.52,3.59.52,1.3,0,2.22-.16,2.76-.47.54-.31.81-.75.81-1.3,0-.46-.21-.8-.63-1.03-.42-.23-.98-.4-1.68-.52-.7-.12-1.46-.24-2.29-.36-.83-.12-1.67-.28-2.51-.49-.84-.2-1.61-.51-2.31-.92-.7-.41-1.26-.96-1.68-1.66-.42-.7-.63-1.6-.63-2.71,0-1.23.35-2.31,1.06-3.25s1.74-1.68,3.09-2.22c1.35-.54,2.96-.81,4.84-.81,1.32,0,2.67.14,4.04.43,1.37.29,2.52.71,3.43,1.26l-1.88,4.01c-.94-.55-1.88-.93-2.83-1.14-.95-.2-1.87-.31-2.76-.31-1.25,0-2.17.17-2.74.51-.58.34-.87.77-.87,1.3,0,.48.21.84.63,1.08.42.24.98.43,1.68.58.7.14,1.46.27,2.29.38.83.11,1.67.27,2.51.49.84.22,1.61.52,2.29.92.69.4,1.25.94,1.68,1.62s.65,1.58.65,2.69c0,1.2-.36,2.27-1.08,3.2s-1.76,1.65-3.12,2.18c-1.36.53-3.02.79-4.97.79Z"/>
      <path class="cls-9" d="M334.74,176.51c-1.66,0-3.26-.2-4.78-.6-1.53-.4-2.74-.9-3.63-1.5l1.88-4.04c.89.55,1.94,1.01,3.16,1.35s2.41.52,3.59.52c1.3,0,2.22-.16,2.76-.47.54-.31.81-.75.81-1.3,0-.46-.21-.8-.63-1.03-.42-.23-.98-.4-1.68-.52-.7-.12-1.46-.24-2.29-.36-.83-.12-1.67-.28-2.51-.49-.84-.2-1.61-.51-2.31-.92-.7-.41-1.26-.96-1.68-1.66-.42-.7-.63-1.6-.63-2.71,0-1.23.35-2.31,1.06-3.25.71-.94,1.74-1.68,3.09-2.22,1.35-.54,2.96-.81,4.84-.81,1.32,0,2.67.14,4.04.43,1.37.29,2.52.71,3.43,1.26l-1.88,4.01c-.94-.55-1.88-.93-2.83-1.14-.95-.2-1.87-.31-2.76-.31-1.25,0-2.17.17-2.74.51-.58.34-.87.77-.87,1.3,0,.48.21.84.63,1.08.42.24.98.43,1.68.58.7.14,1.46.27,2.29.38.83.11,1.67.27,2.51.49.84.22,1.61.52,2.29.92.69.4,1.25.94,1.68,1.62s.65,1.58.65,2.69c0,1.2-.36,2.27-1.08,3.2-.72.93-1.76,1.65-3.12,2.18-1.36.53-3.02.79-4.97.79Z"/>
      <path class="cls-9" d="M350.19,154.09c-1.03,0-1.88-.3-2.53-.9s-.98-1.35-.98-2.24.33-1.64.98-2.24c.65-.6,1.49-.9,2.53-.9s1.88.28,2.53.85c.65.57.98,1.29.98,2.18,0,.94-.32,1.72-.96,2.33-.64.61-1.49.92-2.55.92ZM347.37,176.22v-19.43h5.63v19.43h-5.63Z"/>
      <path class="cls-9" d="M358.24,176.22v-26.79h5.63v11.3l-.36,5.74.11,5.78v3.97h-5.38ZM369.72,176.51c-1.71,0-3.18-.36-4.4-1.08-1.23-.72-2.17-1.82-2.82-3.3-.65-1.48-.97-3.35-.97-5.61s.34-4.16,1.03-5.63c.69-1.47,1.64-2.56,2.87-3.29,1.23-.72,2.66-1.08,4.3-1.08,1.83,0,3.47.41,4.93,1.23,1.46.82,2.61,1.97,3.47,3.47.85,1.49,1.28,3.26,1.28,5.31s-.43,3.78-1.28,5.27c-.85,1.49-2.01,2.65-3.47,3.48-1.46.83-3.1,1.25-4.93,1.25ZM368.75,171.89c.94,0,1.77-.22,2.51-.65.73-.43,1.32-1.05,1.77-1.86.45-.81.67-1.76.67-2.87s-.22-2.09-.67-2.89c-.45-.79-1.03-1.41-1.77-1.84-.73-.43-1.57-.65-2.51-.65s-1.78.22-2.53.65-1.34,1.05-1.77,1.84c-.43.79-.65,1.76-.65,2.89s.22,2.06.65,2.87c.43.81,1.02,1.43,1.77,1.86s1.59.65,2.53.65Z"/>
      <path class="cls-9" d="M385.97,154.09c-1.03,0-1.88-.3-2.53-.9s-.98-1.35-.98-2.24.33-1.64.98-2.24c.65-.6,1.49-.9,2.53-.9s1.88.28,2.53.85c.65.57.98,1.29.98,2.18,0,.94-.32,1.72-.96,2.33-.64.61-1.49.92-2.55.92ZM383.16,176.22v-19.43h5.63v19.43h-5.63Z"/>
      <path class="cls-9" d="M394.02,176.22v-26.79h5.63v26.79h-5.63Z"/>
      <path class="cls-9" d="M407.71,154.09c-1.03,0-1.88-.3-2.53-.9s-.98-1.35-.98-2.24.33-1.64.98-2.24c.65-.6,1.49-.9,2.53-.9s1.88.28,2.53.85c.65.57.98,1.29.98,2.18,0,.94-.32,1.72-.96,2.33-.64.61-1.49.92-2.55.92ZM404.89,176.22v-19.43h5.63v19.43h-5.63Z"/>
      <path class="cls-9" d="M413.45,161.56v-4.33h13.47v4.33h-13.47ZM423.7,176.51c-2.29,0-4.07-.58-5.34-1.75-1.28-1.17-1.91-2.91-1.91-5.22v-17.04h5.63v16.97c0,.82.22,1.45.65,1.9.43.45,1.02.67,1.77.67.89,0,1.65-.24,2.28-.72l1.52,3.97c-.58.41-1.27.72-2.08.92-.81.2-1.64.31-2.51.31Z"/>
      <path class="cls-9" d="M434.28,154.09c-1.03,0-1.88-.3-2.53-.9s-.98-1.35-.98-2.24.33-1.64.98-2.24c.65-.6,1.49-.9,2.53-.9s1.88.28,2.53.85c.65.57.98,1.29.98,2.18,0,.94-.32,1.72-.96,2.33-.64.61-1.49.92-2.55.92ZM431.47,176.22v-19.43h5.63v19.43h-5.63Z"/>
      <path class="cls-9" d="M451.97,176.51c-2.21,0-4.16-.43-5.83-1.3s-2.97-2.05-3.88-3.56c-.91-1.5-1.37-3.22-1.37-5.15s.45-3.68,1.35-5.18c.9-1.5,2.14-2.68,3.7-3.54,1.56-.85,3.33-1.28,5.31-1.28s3.62.4,5.15,1.21c1.53.81,2.74,1.96,3.63,3.47.89,1.5,1.34,3.3,1.34,5.4,0,.22-.01.46-.04.74-.02.28-.05.54-.07.78h-15.78v-3.29h12.82l-2.17.98c0-1.01-.2-1.89-.61-2.64-.41-.75-.97-1.33-1.7-1.75-.72-.42-1.57-.63-2.53-.63s-1.81.21-2.55.63c-.73.42-1.31,1.01-1.72,1.77-.41.76-.61,1.66-.61,2.69v.87c0,1.06.24,1.99.7,2.8.47.81,1.13,1.42,1.99,1.84.85.42,1.86.63,3.01.63,1.03,0,1.94-.16,2.73-.47.78-.31,1.5-.78,2.15-1.41l3,3.25c-.89,1.01-2.01,1.79-3.36,2.33-1.35.54-2.9.81-4.66.81Z"/>
      <path class="cls-9" d="M471.65,176.51c-1.66,0-3.26-.2-4.78-.6-1.53-.4-2.74-.9-3.63-1.5l1.88-4.04c.89.55,1.94,1.01,3.16,1.35s2.41.52,3.59.52c1.3,0,2.22-.16,2.76-.47.54-.31.81-.75.81-1.3,0-.46-.21-.8-.63-1.03-.42-.23-.98-.4-1.68-.52-.7-.12-1.46-.24-2.29-.36-.83-.12-1.67-.28-2.51-.49-.84-.2-1.61-.51-2.31-.92-.7-.41-1.26-.96-1.68-1.66-.42-.7-.63-1.6-.63-2.71,0-1.23.35-2.31,1.06-3.25.71-.94,1.74-1.68,3.09-2.22,1.35-.54,2.96-.81,4.84-.81,1.32,0,2.67.14,4.04.43,1.37.29,2.52.71,3.43,1.26l-1.88,4.01c-.94-.55-1.88-.93-2.83-1.14-.95-.2-1.87-.31-2.76-.31-1.25,0-2.17.17-2.74.51-.58.34-.87.77-.87,1.3,0,.48.21.84.63,1.08.42.24.98.43,1.68.58.7.14,1.46.27,2.29.38.83.11,1.67.27,2.51.49.84.22,1.61.52,2.29.92.69.4,1.25.94,1.68,1.62s.65,1.58.65,2.69c0,1.2-.36,2.27-1.08,3.2s-1.76,1.65-3.12,2.18c-1.36.53-3.02.79-4.97.79Z"/>
    </g>
  </g>
</svg>